<?xml version="1.0" encoding="UTF-8"?>
<svg xmlns="http://www.w3.org/2000/svg" xmlns:xlink="http://www.w3.org/1999/xlink" version="1.1" width="1221px" height="385px" style="shape-rendering:geometricPrecision; text-rendering:geometricPrecision; image-rendering:optimizeQuality; fill-rule:evenodd; clip-rule:evenodd">
  <g>
    <path style="opacity:0.999" fill="#fffefe" d="M 152.5,10.5 C 154.433,11.6417 155.933,13.3083 157,15.5C 170.134,38.4335 182.968,61.4335 195.5,84.5C 187.833,84.5 180.167,84.5 172.5,84.5C 172.5,134.5 172.5,184.5 172.5,234.5C 159.5,234.5 146.5,234.5 133.5,234.5C 133.667,207.165 133.5,179.831 133,152.5C 89.7709,165.729 66.6042,194.896 63.5,240C 67.3107,288.644 92.9773,318.31 140.5,329C 178.043,332.615 207.543,319.115 229,288.5C 237.452,274.477 242.285,259.311 243.5,243C 256.162,242.5 268.829,242.333 281.5,242.5C 277.986,301.073 248.986,340.907 194.5,362C 140.705,377.179 94.5385,364.679 56,324.5C 23.5641,283.546 16.5641,238.546 35,189.5C 51.5627,153.46 78.7294,129.294 116.5,117C 122.399,115.253 128.399,114.087 134.5,113.5C 134.5,103.833 134.5,94.1667 134.5,84.5C 126.493,84.6664 118.493,84.4997 110.5,84C 124.638,59.554 138.638,35.054 152.5,10.5 Z"></path>
  </g>
  <g>
    <path style="opacity:0.999" fill="#fffefe" d="M 653.5,167.5 C 662.5,167.5 671.5,167.5 680.5,167.5C 680.5,175.833 680.5,184.167 680.5,192.5C 671.5,192.5 662.5,192.5 653.5,192.5C 653.5,184.167 653.5,175.833 653.5,167.5 Z"></path>
  </g>
  <g>
    <path style="opacity:1" fill="#fffef8" d="M 1037.5,167.5 C 1046.5,167.5 1055.5,167.5 1064.5,167.5C 1064.5,175.833 1064.5,184.167 1064.5,192.5C 1055.83,192.666 1047.16,192.5 1038.5,192C 1037.52,183.919 1037.18,175.752 1037.5,167.5 Z"></path>
  </g>
  <g>
    <path style="opacity:1" fill="#fffefe" d="M 588.5,169.5 C 596.5,169.5 604.5,169.5 612.5,169.5C 612.5,181.5 612.5,193.5 612.5,205.5C 620.833,205.5 629.167,205.5 637.5,205.5C 637.5,212.833 637.5,220.167 637.5,227.5C 629.167,227.5 620.833,227.5 612.5,227.5C 612.063,243.224 612.563,258.891 614,274.5C 615.589,277.383 618.089,278.883 621.5,279C 626.489,279.499 631.489,279.666 636.5,279.5C 636.5,287.167 636.5,294.833 636.5,302.5C 625.778,302.875 615.111,302.375 604.5,301C 595.272,296.402 590.106,288.902 589,278.5C 588.5,261.503 588.333,244.503 588.5,227.5C 582.167,227.5 575.833,227.5 569.5,227.5C 569.5,220.167 569.5,212.833 569.5,205.5C 575.833,205.5 582.167,205.5 588.5,205.5C 588.5,193.5 588.5,181.5 588.5,169.5 Z"></path>
  </g>
  <g>
    <path style="opacity:0.999" fill="#fffefd" d="M 501.5,202.5 C 529.707,199.838 548.207,211.838 557,238.5C 561.895,262.822 554.729,282.656 535.5,298C 514.362,309.78 495.195,307.28 478,290.5C 475.934,285.637 474.268,280.637 473,275.5C 472.25,276.126 471.416,276.626 470.5,277C 472.393,281.347 473.893,285.847 475,290.5C 475.5,310.497 475.667,330.497 475.5,350.5C 467.167,350.5 458.833,350.5 450.5,350.5C 450.5,302.167 450.5,253.833 450.5,205.5C 458.833,205.5 467.167,205.5 475.5,205.5C 475.97,214.117 474.303,222.284 470.5,230C 471.416,230.374 472.25,230.874 473,231.5C 474.031,220.583 479.197,212.416 488.5,207C 492.846,205.164 497.179,203.664 501.5,202.5 Z M 501.5,225.5 C 525.431,224.936 535.931,236.602 533,260.5C 528.132,277.36 516.965,284.194 499.5,281C 486.674,276.159 480.007,266.826 479.5,253C 480.094,238.257 487.427,229.09 501.5,225.5 Z"></path>
  </g>
  <g>
    <path style="opacity:1" fill="#fffefd" d="M 744.5,202.5 C 751.888,202.253 759.221,202.753 766.5,204C 775.151,206.281 779.485,211.947 779.5,221C 779.036,225.217 778.369,229.384 777.5,233.5C 778.325,234.386 779.325,234.719 780.5,234.5C 781.571,216.598 790.904,206.098 808.5,203C 824.02,200.39 836.52,205.223 846,217.5C 847.927,220.948 849.261,224.615 850,228.5C 850.5,253.164 850.667,277.831 850.5,302.5C 842.167,302.5 833.833,302.5 825.5,302.5C 825.667,281.497 825.5,260.497 825,239.5C 820.998,223.583 811.498,219.083 796.5,226C 793.15,229.532 790.984,233.699 790,238.5C 788.582,259.798 788.082,281.131 788.5,302.5C 780.248,302.816 772.081,302.482 764,301.5C 763.667,280.5 763.333,259.5 763,238.5C 759.529,225.011 751.029,220.177 737.5,224C 732.011,226.468 728.511,230.635 727,236.5C 725.544,258.447 725.044,280.447 725.5,302.5C 717.167,302.5 708.833,302.5 700.5,302.5C 700.5,270.167 700.5,237.833 700.5,205.5C 708.833,205.5 717.167,205.5 725.5,205.5C 724.922,214.812 722.922,223.812 719.5,232.5C 720.242,233.287 721.075,233.953 722,234.5C 723.425,225.557 726.425,217.223 731,209.5C 734.975,205.931 739.475,203.597 744.5,202.5 Z"></path>
  </g>
  <g>
    <path style="opacity:0.999" fill="#fffefd" d="M 912.5,202.5 C 934.517,199.779 952.684,206.779 967,223.5C 974.554,235.056 977.388,247.722 975.5,261.5C 948.833,261.5 922.167,261.5 895.5,261.5C 897.565,273.399 904.565,280.566 916.5,283C 925.911,284.803 934.577,283.137 942.5,278C 943.743,276.846 944.743,275.512 945.5,274C 954.827,273.5 964.161,273.334 973.5,273.5C 969.607,286.566 961.274,295.733 948.5,301C 927.779,308.114 907.779,306.448 888.5,296C 867.376,280.288 860.876,259.788 869,234.5C 877.677,215.912 892.177,205.245 912.5,202.5 Z M 915.5,222.5 C 932.898,220.114 943.565,227.281 947.5,244C 930.17,244.5 912.837,244.667 895.5,244.5C 897.621,233.045 904.287,225.712 915.5,222.5 Z"></path>
  </g>
  <g>
    <path style="opacity:0.999" fill="#fffefd" d="M 1121.5,202.5 C 1137.37,199.893 1150.87,204.227 1162,215.5C 1164.03,220.684 1166.19,225.684 1168.5,230.5C 1168.83,230 1169.17,229.5 1169.5,229C 1166.07,221.542 1164.73,213.709 1165.5,205.5C 1173.83,205.5 1182.17,205.5 1190.5,205.5C 1190.5,253.833 1190.5,302.167 1190.5,350.5C 1182.17,350.5 1173.83,350.5 1165.5,350.5C 1165.33,329.831 1165.5,309.164 1166,288.5C 1167.64,284.588 1168.64,280.588 1169,276.5C 1168.67,276.167 1168.33,275.833 1168,275.5C 1165.39,290.779 1156.55,300.279 1141.5,304C 1112.11,307.892 1092.95,295.725 1084,267.5C 1078.51,244.918 1084.34,226.084 1101.5,211C 1107.73,206.876 1114.4,204.043 1121.5,202.5 Z M 1127.5,225.5 C 1152.56,224.726 1163.39,236.726 1160,261.5C 1152.74,280.208 1139.57,286.042 1120.5,279C 1111.4,272.811 1106.74,264.144 1106.5,253C 1107.03,238.663 1114.03,229.497 1127.5,225.5 Z"></path>
  </g>
  <g>
    <path style="opacity:1" fill="#fefffe" d="M 243.5,204.5 C 256.167,204.5 268.833,204.5 281.5,204.5C 281.5,214.5 281.5,224.5 281.5,234.5C 268.833,234.5 256.167,234.5 243.5,234.5C 243.5,224.5 243.5,214.5 243.5,204.5 Z"></path>
  </g>
  <g>
    <path style="opacity:0.999" fill="#fffefe" d="M 333.5,205.5 C 341.833,205.5 350.167,205.5 358.5,205.5C 358.047,226.22 358.547,246.887 360,267.5C 364.314,280.97 373.481,285.803 387.5,282C 395.333,279.5 400.5,274.333 403,266.5C 404.44,246.212 404.94,225.879 404.5,205.5C 412.833,205.5 421.167,205.5 429.5,205.5C 429.5,237.833 429.5,270.167 429.5,302.5C 421.167,302.5 412.833,302.5 404.5,302.5C 404.02,295.441 405.687,288.941 409.5,283C 408.975,282.308 408.308,281.808 407.5,281.5C 403.893,296.139 394.56,303.972 379.5,305C 363.331,307.422 349.831,302.589 339,290.5C 336.545,286.469 334.879,282.136 334,277.5C 333.5,253.502 333.333,229.502 333.5,205.5 Z"></path>
  </g>
  <g>
    <path style="opacity:1" fill="#fefffe" d="M 655.5,205.5 C 663.5,205.5 671.5,205.5 679.5,205.5C 679.5,237.833 679.5,270.167 679.5,302.5C 671.5,302.5 663.5,302.5 655.5,302.5C 655.5,270.167 655.5,237.833 655.5,205.5 Z"></path>
  </g>
  <g>
    <path style="opacity:1" fill="#fefffe" d="M 1039.5,205.5 C 1047.5,205.5 1055.5,205.5 1063.5,205.5C 1063.5,237.833 1063.5,270.167 1063.5,302.5C 1055.5,302.5 1047.5,302.5 1039.5,302.5C 1039.5,270.167 1039.5,237.833 1039.5,205.5 Z"></path>
  </g>
</svg>
